<?xml version="1.0" encoding="UTF-8"?>
<svg xmlns="http://www.w3.org/2000/svg" xmlns:xlink="http://www.w3.org/1999/xlink" width="100px" height="21px" viewBox="0 0 99 21" version="1.1">
<g id="surface1">
<path style=" stroke:none;fill-rule:nonzero;fill:rgb(13.333333%,19.215686%,21.568627%);fill-opacity:1;" d="M 29.023438 4.261719 C 30.316406 4.261719 31.390625 4.585938 32.246094 5.242188 C 33.101562 5.894531 33.679688 6.777344 33.980469 7.898438 L 32.171875 7.898438 C 31.925781 7.265625 31.527344 6.765625 30.980469 6.398438 C 30.441406 6.023438 29.78125 5.835938 28.996094 5.835938 C 28.367188 5.835938 27.804688 5.988281 27.308594 6.292969 C 26.820312 6.601562 26.433594 7.042969 26.144531 7.617188 C 25.867188 8.179688 25.726562 8.84375 25.726562 9.605469 C 25.726562 10.355469 25.867188 11.019531 26.144531 11.59375 C 26.433594 12.15625 26.820312 12.59375 27.308594 12.898438 C 27.804688 13.207031 28.367188 13.359375 28.996094 13.359375 C 29.78125 13.359375 30.441406 13.175781 30.980469 12.8125 C 31.527344 12.433594 31.925781 11.933594 32.171875 11.3125 L 33.980469 11.3125 C 33.679688 12.429688 33.101562 13.316406 32.246094 13.96875 C 31.390625 14.613281 30.316406 14.933594 29.023438 14.933594 C 28.03125 14.933594 27.148438 14.710938 26.382812 14.265625 C 25.617188 13.8125 25.023438 13.183594 24.605469 12.378906 C 24.191406 11.570312 23.980469 10.644531 23.980469 9.605469 C 23.980469 8.566406 24.191406 7.644531 24.605469 6.84375 C 25.023438 6.03125 25.617188 5.398438 26.382812 4.941406 C 27.148438 4.488281 28.03125 4.261719 29.023438 4.261719 Z M 39.4375 6.5625 C 40.234375 6.5625 40.949219 6.730469 41.585938 7.066406 C 42.222656 7.402344 42.71875 7.886719 43.078125 8.519531 C 43.4375 9.15625 43.613281 9.898438 43.613281 10.746094 C 43.613281 11.609375 43.4375 12.355469 43.078125 12.988281 C 42.71875 13.621094 42.222656 14.109375 41.585938 14.445312 C 40.949219 14.78125 40.234375 14.949219 39.4375 14.949219 C 38.640625 14.949219 37.925781 14.78125 37.289062 14.445312 C 36.660156 14.109375 36.164062 13.621094 35.796875 12.988281 C 35.4375 12.347656 35.257812 11.597656 35.257812 10.746094 C 35.257812 9.898438 35.4375 9.15625 35.796875 8.519531 C 36.164062 7.886719 36.660156 7.402344 37.289062 7.066406 C 37.925781 6.730469 38.640625 6.5625 39.4375 6.5625 Z M 39.4375 8.03125 C 39 8.03125 38.597656 8.128906 38.226562 8.328125 C 37.859375 8.527344 37.5625 8.832031 37.332031 9.25 C 37.113281 9.652344 37.003906 10.152344 37.003906 10.746094 C 37.003906 11.351562 37.113281 11.855469 37.332031 12.261719 C 37.5625 12.667969 37.859375 12.96875 38.226562 13.167969 C 38.597656 13.367188 39 13.464844 39.4375 13.464844 C 39.875 13.464844 40.277344 13.367188 40.644531 13.167969 C 41.015625 12.96875 41.308594 12.667969 41.527344 12.261719 C 41.753906 11.855469 41.867188 11.351562 41.867188 10.746094 C 41.867188 10.152344 41.753906 9.652344 41.527344 9.25 C 41.308594 8.832031 41.015625 8.527344 40.644531 8.328125 C 40.277344 8.128906 39.875 8.03125 39.4375 8.03125 Z M 55.53125 6.53125 C 56.507812 6.53125 57.285156 6.839844 57.859375 7.453125 C 58.449219 8.066406 58.742188 8.941406 58.742188 10.078125 L 58.742188 14.84375 L 57.039062 14.84375 L 57.039062 10.257812 C 57.039062 9.546875 56.859375 8.996094 56.503906 8.609375 C 56.144531 8.214844 55.652344 8.015625 55.023438 8.015625 C 54.359375 8.015625 53.824219 8.230469 53.429688 8.65625 C 53.039062 9.070312 52.847656 9.683594 52.847656 10.496094 L 52.847656 14.84375 L 51.144531 14.84375 L 51.144531 10.257812 C 51.144531 9.546875 50.964844 8.996094 50.609375 8.609375 C 50.25 8.214844 49.757812 8.015625 49.128906 8.015625 C 48.464844 8.015625 47.929688 8.230469 47.535156 8.65625 C 47.144531 9.070312 46.953125 9.683594 46.953125 10.496094 L 46.953125 14.84375 L 45.25 14.84375 L 45.25 6.664062 L 46.953125 6.664062 L 46.953125 8.371094 C 47.160156 7.777344 47.507812 7.324219 47.996094 7.007812 C 48.484375 6.691406 49.054688 6.53125 49.710938 6.53125 C 50.398438 6.53125 50.992188 6.699219 51.488281 7.035156 C 51.996094 7.371094 52.363281 7.859375 52.59375 8.492188 C 52.832031 7.878906 53.214844 7.398438 53.742188 7.050781 C 54.269531 6.703125 54.867188 6.53125 55.53125 6.53125 Z M 65.441406 6.5625 C 66.160156 6.5625 66.796875 6.730469 67.351562 7.066406 C 67.921875 7.402344 68.363281 7.886719 68.679688 8.519531 C 69 9.15625 69.160156 9.898438 69.160156 10.746094 C 69.160156 11.609375 69 12.355469 68.679688 12.988281 C 68.363281 13.621094 67.921875 14.109375 67.351562 14.445312 C 66.796875 14.78125 66.160156 14.949219 65.441406 14.949219 C 64.695312 14.949219 64.058594 14.765625 63.53125 14.398438 C 63.003906 14.035156 62.636719 13.546875 62.429688 12.945312 L 62.429688 18.734375 L 60.726562 18.734375 L 60.726562 6.664062 L 62.429688 6.664062 L 62.429688 8.566406 C 62.636719 7.960938 63.003906 7.476562 63.53125 7.109375 C 64.058594 6.746094 64.695312 6.5625 65.441406 6.5625 Z M 64.921875 8.046875 C 64.441406 8.046875 64.015625 8.160156 63.636719 8.386719 C 63.257812 8.605469 62.960938 8.921875 62.742188 9.335938 C 62.523438 9.742188 62.414062 10.214844 62.414062 10.746094 C 62.414062 11.292969 62.523438 11.765625 62.742188 12.171875 C 62.960938 12.578125 63.257812 12.894531 63.636719 13.121094 C 64.015625 13.339844 64.441406 13.449219 64.921875 13.449219 C 65.675781 13.449219 66.285156 13.210938 66.742188 12.738281 C 67.199219 12.253906 67.425781 11.589844 67.425781 10.746094 C 67.425781 9.917969 67.199219 9.257812 66.742188 8.773438 C 66.285156 8.289062 65.675781 8.046875 64.921875 8.046875 Z M 74.09375 6.5625 C 74.839844 6.5625 75.476562 6.746094 76.003906 7.109375 C 76.53125 7.476562 76.90625 7.960938 77.125 8.566406 L 77.125 6.664062 L 78.824219 6.664062 L 78.824219 14.84375 L 77.125 14.84375 L 77.125 12.945312 C 76.90625 13.546875 76.53125 14.035156 76.003906 14.398438 C 75.476562 14.765625 74.839844 14.949219 74.09375 14.949219 C 73.378906 14.949219 72.738281 14.78125 72.171875 14.445312 C 71.613281 14.109375 71.175781 13.621094 70.855469 12.988281 C 70.539062 12.355469 70.378906 11.609375 70.378906 10.746094 C 70.378906 9.898438 70.539062 9.15625 70.855469 8.519531 C 71.175781 7.886719 71.613281 7.402344 72.171875 7.066406 C 72.738281 6.730469 73.378906 6.5625 74.09375 6.5625 Z M 74.617188 8.046875 C 73.859375 8.046875 73.253906 8.289062 72.796875 8.773438 C 72.347656 9.25 72.125 9.90625 72.125 10.746094 C 72.125 11.589844 72.347656 12.253906 72.796875 12.738281 C 73.253906 13.210938 73.859375 13.449219 74.617188 13.449219 C 75.09375 13.449219 75.523438 13.339844 75.902344 13.121094 C 76.277344 12.894531 76.578125 12.578125 76.796875 12.171875 C 77.015625 11.765625 77.125 11.292969 77.125 10.746094 C 77.125 10.214844 77.015625 9.742188 76.796875 9.335938 C 76.578125 8.921875 76.277344 8.605469 75.902344 8.386719 C 75.523438 8.160156 75.09375 8.046875 74.617188 8.046875 Z M 85.464844 6.53125 C 86.417969 6.53125 87.183594 6.839844 87.761719 7.453125 C 88.339844 8.066406 88.628906 8.941406 88.628906 10.078125 L 88.628906 14.84375 L 86.925781 14.84375 L 86.925781 10.257812 C 86.925781 9.527344 86.738281 8.960938 86.359375 8.566406 C 85.980469 8.160156 85.464844 7.957031 84.808594 7.957031 C 84.128906 7.957031 83.589844 8.175781 83.179688 8.609375 C 82.773438 9.035156 82.570312 9.664062 82.570312 10.496094 L 82.570312 14.84375 L 80.867188 14.84375 L 80.867188 6.664062 L 82.570312 6.664062 L 82.570312 8.460938 C 82.785156 7.847656 83.15625 7.371094 83.671875 7.035156 C 84.191406 6.699219 84.789062 6.53125 85.464844 6.53125 Z M 91.585938 6.664062 L 94.046875 12.675781 L 96.332031 6.664062 L 98.226562 6.664062 L 93.257812 18.734375 L 91.363281 18.734375 L 93.140625 14.652344 L 89.675781 6.664062 Z M 91.585938 6.664062 "/>
<path style=" stroke:none;fill-rule:nonzero;fill:rgb(5.882353%,18.823529%,25.490196%);fill-opacity:1;" d="M 19.867188 15.445312 C 18.882812 17.277344 17.375 18.777344 15.535156 19.757812 C 13.695312 20.738281 11.601562 21.152344 9.523438 20.949219 C 7.449219 20.746094 5.476562 19.9375 3.863281 18.621094 C 2.25 17.304688 1.0625 15.539062 0.457031 13.550781 C -0.152344 11.566406 -0.152344 9.445312 0.453125 7.457031 C 1.058594 5.46875 2.242188 3.703125 3.855469 2.386719 C 5.46875 1.066406 7.4375 0.253906 9.515625 0.0507812 C 11.59375 -0.152344 13.683594 0.257812 15.527344 1.238281 L 14.277344 3.566406 C 12.898438 2.835938 11.332031 2.523438 9.777344 2.679688 C 8.222656 2.832031 6.746094 3.441406 5.539062 4.425781 C 4.332031 5.414062 3.445312 6.734375 2.992188 8.222656 C 2.539062 9.710938 2.539062 11.296875 2.996094 12.785156 C 3.449219 14.273438 4.335938 15.59375 5.546875 16.578125 C 6.753906 17.5625 8.230469 18.171875 9.785156 18.324219 C 11.339844 18.472656 12.90625 18.164062 14.28125 17.429688 C 15.660156 16.695312 16.789062 15.574219 17.523438 14.203125 Z M 19.867188 15.445312 "/>
<path style=" stroke:none;fill-rule:nonzero;fill:rgb(78.431373%,14.117647%,18.431373%);fill-opacity:1;" d="M 10.738281 15.929688 C 13.652344 15.929688 16.015625 13.582031 16.015625 10.679688 C 16.015625 7.78125 13.652344 5.429688 10.738281 5.429688 C 7.824219 5.429688 5.460938 7.78125 5.460938 10.679688 C 5.460938 13.582031 7.824219 15.929688 10.738281 15.929688 Z M 10.738281 15.929688 "/>
</g>
</svg>
