<?xml version="1.0" encoding="UTF-8"?>
<svg xmlns="http://www.w3.org/2000/svg" xmlns:xlink="http://www.w3.org/1999/xlink" width="200px" height="42px" viewBox="0 0 198 42" version="1.1">
<g id="surface1">
<path style=" stroke:none;fill-rule:nonzero;fill:rgb(13.333333%,19.215686%,21.568627%);fill-opacity:1;" d="M 58.050781 8.519531 C 60.636719 8.519531 62.785156 9.175781 64.496094 10.480469 C 66.207031 11.785156 67.359375 13.558594 67.957031 15.796875 L 64.347656 15.796875 C 63.847656 14.527344 63.054688 13.527344 61.957031 12.796875 C 60.882812 12.042969 59.5625 11.667969 57.988281 11.667969 C 56.734375 11.667969 55.613281 11.976562 54.617188 12.589844 C 53.640625 13.203125 52.867188 14.082031 52.289062 15.230469 C 51.730469 16.359375 51.453125 17.683594 51.453125 19.210938 C 51.453125 20.714844 51.730469 22.039062 52.289062 23.1875 C 52.867188 24.316406 53.640625 25.1875 54.617188 25.800781 C 55.613281 26.414062 56.734375 26.71875 57.988281 26.71875 C 59.5625 26.71875 60.882812 26.355469 61.957031 25.621094 C 63.054688 24.871094 63.847656 23.871094 64.347656 22.625 L 67.957031 22.625 C 67.359375 24.859375 66.207031 26.632812 64.496094 27.9375 C 62.785156 29.222656 60.636719 29.867188 58.050781 29.867188 C 56.058594 29.867188 54.296875 29.421875 52.765625 28.53125 C 51.234375 27.621094 50.050781 26.363281 49.214844 24.761719 C 48.378906 23.136719 47.960938 21.289062 47.960938 19.210938 C 47.960938 17.132812 48.378906 15.289062 49.214844 13.6875 C 50.050781 12.0625 51.234375 10.796875 52.765625 9.886719 C 54.296875 8.976562 56.058594 8.519531 58.050781 8.519531 Z M 78.875 13.121094 C 80.464844 13.121094 81.898438 13.460938 83.171875 14.132812 C 84.445312 14.804688 85.4375 15.773438 86.15625 17.042969 C 86.871094 18.308594 87.230469 19.792969 87.230469 21.496094 C 87.230469 23.21875 86.871094 24.710938 86.15625 25.980469 C 85.4375 27.246094 84.445312 28.214844 83.171875 28.886719 C 81.898438 29.5625 80.464844 29.898438 78.875 29.898438 C 77.28125 29.898438 75.847656 29.5625 74.574219 28.886719 C 73.320312 28.214844 72.328125 27.246094 71.589844 25.980469 C 70.875 24.691406 70.515625 23.199219 70.515625 21.496094 C 70.515625 19.792969 70.875 18.308594 71.589844 17.042969 C 72.328125 15.773438 73.320312 14.804688 74.574219 14.132812 C 75.847656 13.460938 77.28125 13.121094 78.875 13.121094 Z M 78.875 16.0625 C 78 16.0625 77.191406 16.261719 76.457031 16.65625 C 75.71875 17.050781 75.121094 17.664062 74.664062 18.496094 C 74.226562 19.308594 74.007812 20.308594 74.007812 21.496094 C 74.007812 22.703125 74.226562 23.710938 74.664062 24.523438 C 75.121094 25.335938 75.71875 25.9375 76.457031 26.335938 C 77.191406 26.730469 78 26.929688 78.875 26.929688 C 79.75 26.929688 80.554688 26.730469 81.289062 26.335938 C 82.027344 25.9375 82.613281 25.335938 83.050781 24.523438 C 83.507812 23.710938 83.738281 22.703125 83.738281 21.496094 C 83.738281 20.308594 83.507812 19.308594 83.050781 18.496094 C 82.613281 17.664062 82.027344 17.050781 81.289062 16.65625 C 80.554688 16.261719 79.75 16.0625 78.875 16.0625 Z M 111.066406 13.0625 C 113.015625 13.0625 114.566406 13.675781 115.722656 14.902344 C 116.894531 16.132812 117.480469 17.882812 117.480469 20.160156 L 117.480469 29.691406 L 114.078125 29.691406 L 114.078125 20.515625 C 114.078125 19.089844 113.722656 17.992188 113.003906 17.21875 C 112.289062 16.429688 111.304688 16.03125 110.050781 16.03125 C 108.71875 16.03125 107.652344 16.457031 106.855469 17.308594 C 106.082031 18.140625 105.691406 19.367188 105.691406 20.992188 L 105.691406 29.691406 L 102.289062 29.691406 L 102.289062 20.515625 C 102.289062 19.089844 101.933594 17.992188 101.214844 17.21875 C 100.5 16.429688 99.515625 16.03125 98.261719 16.03125 C 96.929688 16.03125 95.863281 16.457031 95.066406 17.308594 C 94.292969 18.140625 93.902344 19.367188 93.902344 20.992188 L 93.902344 29.691406 L 90.5 29.691406 L 90.5 13.332031 L 93.902344 13.332031 L 93.902344 16.746094 C 94.320312 15.558594 95.019531 14.648438 95.992188 14.011719 C 96.96875 13.378906 98.113281 13.0625 99.425781 13.0625 C 100.796875 13.0625 101.980469 13.398438 102.976562 14.074219 C 103.992188 14.746094 104.726562 15.714844 105.183594 16.984375 C 105.664062 15.753906 106.429688 14.796875 107.484375 14.101562 C 108.539062 13.410156 109.730469 13.0625 111.066406 13.0625 Z M 130.886719 13.121094 C 132.320312 13.121094 133.589844 13.460938 134.707031 14.132812 C 135.839844 14.804688 136.726562 15.773438 137.363281 17.042969 C 138 18.308594 138.316406 19.792969 138.316406 21.496094 C 138.316406 23.21875 138 24.710938 137.363281 25.980469 C 136.726562 27.246094 135.839844 28.214844 134.707031 28.886719 C 133.589844 29.5625 132.320312 29.898438 130.886719 29.898438 C 129.394531 29.898438 128.121094 29.53125 127.066406 28.800781 C 126.011719 28.066406 125.273438 27.097656 124.855469 25.890625 L 124.855469 37.46875 L 121.453125 37.46875 L 121.453125 13.332031 L 124.855469 13.332031 L 124.855469 17.132812 C 125.273438 15.921875 126.011719 14.953125 127.066406 14.222656 C 128.121094 13.488281 129.394531 13.121094 130.886719 13.121094 Z M 129.839844 16.09375 C 128.886719 16.09375 128.03125 16.320312 127.273438 16.773438 C 126.519531 17.210938 125.921875 17.84375 125.484375 18.675781 C 125.046875 19.484375 124.828125 20.425781 124.828125 21.496094 C 124.828125 22.582031 125.046875 23.535156 125.484375 24.34375 C 125.921875 25.15625 126.519531 25.789062 127.273438 26.246094 C 128.03125 26.679688 128.886719 26.898438 129.839844 26.898438 C 131.351562 26.898438 132.566406 26.425781 133.484375 25.472656 C 134.398438 24.503906 134.855469 23.175781 134.855469 21.496094 C 134.855469 19.832031 134.398438 18.515625 133.484375 17.546875 C 132.566406 16.578125 131.351562 16.09375 129.839844 16.09375 Z M 148.191406 13.121094 C 149.683594 13.121094 150.957031 13.488281 152.011719 14.222656 C 153.066406 14.953125 153.8125 15.921875 154.25 17.132812 L 154.25 13.332031 L 157.652344 13.332031 L 157.652344 29.691406 L 154.25 29.691406 L 154.25 25.890625 C 153.8125 27.097656 153.066406 28.066406 152.011719 28.800781 C 150.957031 29.53125 149.683594 29.898438 148.191406 29.898438 C 146.757812 29.898438 145.472656 29.5625 144.339844 28.886719 C 143.226562 28.214844 142.351562 27.246094 141.714844 25.980469 C 141.078125 24.710938 140.757812 23.21875 140.757812 21.496094 C 140.757812 19.792969 141.078125 18.308594 141.714844 17.042969 C 142.351562 15.773438 143.226562 14.804688 144.339844 14.132812 C 145.472656 13.460938 146.757812 13.121094 148.191406 13.121094 Z M 149.234375 16.09375 C 147.722656 16.09375 146.507812 16.578125 145.59375 17.546875 C 144.699219 18.496094 144.25 19.8125 144.25 21.496094 C 144.25 23.175781 144.699219 24.503906 145.59375 25.472656 C 146.507812 26.425781 147.722656 26.898438 149.234375 26.898438 C 150.191406 26.898438 151.046875 26.679688 151.800781 26.246094 C 152.558594 25.789062 153.15625 25.15625 153.59375 24.34375 C 154.03125 23.535156 154.25 22.582031 154.25 21.496094 C 154.25 20.425781 154.03125 19.484375 153.59375 18.675781 C 153.15625 17.84375 152.558594 17.210938 151.800781 16.773438 C 151.046875 16.320312 150.191406 16.09375 149.234375 16.09375 Z M 170.925781 13.0625 C 172.835938 13.0625 174.367188 13.675781 175.523438 14.902344 C 176.675781 16.132812 177.253906 17.882812 177.253906 20.160156 L 177.253906 29.691406 L 173.851562 29.691406 L 173.851562 20.515625 C 173.851562 19.050781 173.472656 17.921875 172.71875 17.132812 C 171.960938 16.320312 170.925781 15.914062 169.613281 15.914062 C 168.261719 15.914062 167.175781 16.347656 166.359375 17.21875 C 165.542969 18.070312 165.136719 19.328125 165.136719 20.992188 L 165.136719 29.691406 L 161.734375 29.691406 L 161.734375 13.332031 L 165.136719 13.332031 L 165.136719 16.921875 C 165.574219 15.695312 166.308594 14.746094 167.347656 14.074219 C 168.378906 13.398438 169.574219 13.0625 170.925781 13.0625 Z M 183.171875 13.332031 L 188.097656 25.355469 L 192.664062 13.332031 L 196.453125 13.332031 L 186.515625 37.46875 L 182.726562 37.46875 L 186.277344 29.304688 L 179.351562 13.332031 Z M 183.171875 13.332031 "/>
<path style=" stroke:none;fill-rule:nonzero;fill:rgb(5.882353%,18.823529%,25.490196%);fill-opacity:1;" d="M 39.734375 30.890625 C 37.765625 34.554688 34.75 37.554688 31.070312 39.515625 C 27.390625 41.476562 23.207031 42.304688 19.050781 41.898438 C 14.894531 41.496094 10.953125 39.871094 7.726562 37.238281 C 4.496094 34.605469 2.125 31.078125 0.910156 27.105469 C -0.300781 23.132812 -0.304688 18.886719 0.90625 14.914062 C 2.117188 10.9375 4.484375 7.410156 7.710938 4.773438 C 10.9375 2.136719 14.875 0.511719 19.03125 0.101562 C 23.1875 -0.308594 27.371094 0.519531 31.054688 2.476562 L 28.554688 7.132812 C 25.796875 5.667969 22.664062 5.050781 19.554688 5.355469 C 16.445312 5.664062 13.496094 6.878906 11.078125 8.851562 C 8.664062 10.824219 6.890625 13.46875 5.984375 16.445312 C 5.078125 19.417969 5.082031 22.59375 5.988281 25.570312 C 6.898438 28.546875 8.671875 31.183594 11.089844 33.15625 C 13.507812 35.128906 16.457031 36.339844 19.570312 36.644531 C 22.679688 36.949219 25.808594 36.328125 28.566406 34.859375 C 31.320312 33.394531 33.578125 31.148438 35.050781 28.402344 Z M 39.734375 30.890625 "/>
<path style=" stroke:none;fill-rule:nonzero;fill:rgb(78.431373%,14.117647%,18.431373%);fill-opacity:1;" d="M 21.472656 31.863281 C 27.304688 31.863281 32.03125 27.160156 32.03125 21.363281 C 32.03125 15.5625 27.304688 10.863281 21.472656 10.863281 C 15.644531 10.863281 10.917969 15.5625 10.917969 21.363281 C 10.917969 27.160156 15.644531 31.863281 21.472656 31.863281 Z M 21.472656 31.863281 "/>
</g>
</svg>
