<?xml version="1.0" encoding="UTF-8"?>
<svg xmlns="http://www.w3.org/2000/svg" xmlns:xlink="http://www.w3.org/1999/xlink" width="350px" height="74px" viewBox="0 0 350 74" version="1.1">
<g id="surface1">
<path style=" stroke:none;fill-rule:nonzero;fill:rgb(13.333333%,19.215686%,21.568627%);fill-opacity:1;" d="M 102.613281 15.011719 C 107.183594 15.011719 110.984375 16.164062 114.007812 18.464844 C 117.03125 20.765625 119.070312 23.886719 120.128906 27.828125 L 113.742188 27.828125 C 112.863281 25.597656 111.457031 23.835938 109.523438 22.546875 C 107.625 21.21875 105.285156 20.558594 102.507812 20.558594 C 100.289062 20.558594 98.304688 21.097656 96.542969 22.179688 C 94.820312 23.261719 93.449219 24.8125 92.429688 26.835938 C 91.445312 28.824219 90.953125 31.160156 90.953125 33.84375 C 90.953125 36.496094 91.445312 38.832031 92.429688 40.855469 C 93.449219 42.84375 94.820312 44.375 96.542969 45.457031 C 98.304688 46.539062 100.289062 47.078125 102.507812 47.078125 C 105.285156 47.078125 107.625 46.433594 109.523438 45.144531 C 111.457031 43.820312 112.863281 42.058594 113.742188 39.859375 L 120.128906 39.859375 C 119.070312 43.800781 117.03125 46.921875 114.007812 49.222656 C 110.984375 51.492188 107.183594 52.625 102.613281 52.625 C 99.09375 52.625 95.980469 51.839844 93.273438 50.269531 C 90.566406 48.667969 88.472656 46.453125 86.996094 43.625 C 85.519531 40.765625 84.78125 37.507812 84.78125 33.84375 C 84.78125 30.183594 85.519531 26.941406 86.996094 24.113281 C 88.472656 21.253906 90.566406 19.023438 93.273438 17.417969 C 95.980469 15.816406 99.09375 15.011719 102.613281 15.011719 Z M 139.421875 23.121094 C 142.234375 23.121094 144.769531 23.714844 147.019531 24.898438 C 149.269531 26.085938 151.027344 27.792969 152.296875 30.027344 C 153.5625 32.257812 154.195312 34.875 154.195312 37.871094 C 154.195312 40.90625 153.5625 43.539062 152.296875 45.773438 C 151.027344 48.003906 149.269531 49.710938 147.019531 50.898438 C 144.769531 52.082031 142.234375 52.675781 139.421875 52.675781 C 136.609375 52.675781 134.078125 52.082031 131.824219 50.898438 C 129.609375 49.710938 127.851562 48.003906 126.550781 45.773438 C 125.285156 43.503906 124.652344 40.871094 124.652344 37.871094 C 124.652344 34.875 125.285156 32.257812 126.550781 30.027344 C 127.851562 27.792969 129.609375 26.085938 131.824219 24.898438 C 134.078125 23.714844 136.609375 23.121094 139.421875 23.121094 Z M 139.421875 28.300781 C 137.875 28.300781 136.453125 28.648438 135.148438 29.347656 C 133.847656 30.042969 132.792969 31.125 131.984375 32.589844 C 131.210938 34.019531 130.824219 35.78125 130.824219 37.871094 C 130.824219 40 131.210938 41.777344 131.984375 43.207031 C 132.792969 44.636719 133.847656 45.703125 135.148438 46.398438 C 136.453125 47.097656 137.875 47.445312 139.421875 47.445312 C 140.96875 47.445312 142.394531 47.097656 143.695312 46.398438 C 144.996094 45.703125 146.035156 44.636719 146.808594 43.207031 C 147.617188 41.777344 148.023438 40 148.023438 37.871094 C 148.023438 35.78125 147.617188 34.019531 146.808594 32.589844 C 146.035156 31.125 144.996094 30.042969 143.695312 29.347656 C 142.394531 28.648438 140.96875 28.300781 139.421875 28.300781 Z M 196.328125 23.015625 C 199.773438 23.015625 202.515625 24.097656 204.558594 26.261719 C 206.632812 28.421875 207.667969 31.507812 207.667969 35.519531 L 207.667969 52.308594 L 201.65625 52.308594 L 201.65625 36.148438 C 201.65625 33.636719 201.023438 31.699219 199.757812 30.339844 C 198.488281 28.945312 196.75 28.246094 194.53125 28.246094 C 192.175781 28.246094 190.292969 28.996094 188.886719 30.496094 C 187.515625 31.960938 186.832031 34.125 186.832031 36.984375 L 186.832031 52.308594 L 180.816406 52.308594 L 180.816406 36.148438 C 180.816406 33.636719 180.183594 31.699219 178.917969 30.339844 C 177.652344 28.945312 175.910156 28.246094 173.695312 28.246094 C 171.335938 28.246094 169.457031 28.996094 168.046875 30.496094 C 166.675781 31.960938 165.992188 34.125 165.992188 36.984375 L 165.992188 52.308594 L 159.976562 52.308594 L 159.976562 23.488281 L 165.992188 23.488281 L 165.992188 29.503906 C 166.730469 27.410156 167.960938 25.804688 169.683594 24.691406 C 171.40625 23.574219 173.429688 23.015625 175.75 23.015625 C 178.179688 23.015625 180.269531 23.609375 182.03125 24.796875 C 183.824219 25.980469 185.125 27.691406 185.933594 29.921875 C 186.777344 27.757812 188.132812 26.066406 189.996094 24.847656 C 191.859375 23.625 193.972656 23.015625 196.328125 23.015625 Z M 231.363281 23.121094 C 233.894531 23.121094 236.148438 23.714844 238.117188 24.898438 C 240.121094 26.085938 241.6875 27.792969 242.8125 30.027344 C 243.9375 32.257812 244.5 34.875 244.5 37.871094 C 244.5 40.90625 243.9375 43.539062 242.8125 45.773438 C 241.6875 48.003906 240.121094 49.710938 238.117188 50.898438 C 236.148438 52.082031 233.894531 52.675781 231.363281 52.675781 C 228.726562 52.675781 226.472656 52.03125 224.609375 50.742188 C 222.746094 49.449219 221.445312 47.742188 220.707031 45.613281 L 220.707031 66.015625 L 214.691406 66.015625 L 214.691406 23.488281 L 220.707031 23.488281 L 220.707031 30.183594 C 221.445312 28.054688 222.746094 26.347656 224.609375 25.058594 C 226.472656 23.765625 228.726562 23.121094 231.363281 23.121094 Z M 229.519531 28.351562 C 227.828125 28.351562 226.316406 28.753906 224.980469 29.554688 C 223.644531 30.324219 222.589844 31.4375 221.816406 32.902344 C 221.039062 34.332031 220.652344 35.988281 220.652344 37.871094 C 220.652344 39.789062 221.039062 41.464844 221.816406 42.894531 C 222.589844 44.324219 223.644531 45.441406 224.980469 46.242188 C 226.316406 47.007812 227.828125 47.394531 229.519531 47.394531 C 232.191406 47.394531 234.335938 46.554688 235.953125 44.882812 C 237.570312 43.171875 238.378906 40.835938 238.378906 37.871094 C 238.378906 34.941406 237.570312 32.625 235.953125 30.914062 C 234.335938 29.207031 232.191406 28.351562 229.519531 28.351562 Z M 261.953125 23.121094 C 264.589844 23.121094 266.839844 23.765625 268.707031 25.058594 C 270.570312 26.347656 271.886719 28.054688 272.664062 30.183594 L 272.664062 23.488281 L 278.675781 23.488281 L 278.675781 52.308594 L 272.664062 52.308594 L 272.664062 45.613281 C 271.886719 47.742188 270.570312 49.449219 268.707031 50.742188 C 266.839844 52.03125 264.589844 52.675781 261.953125 52.675781 C 259.421875 52.675781 257.152344 52.082031 255.148438 50.898438 C 253.179688 49.710938 251.628906 48.003906 250.503906 45.773438 C 249.378906 43.539062 248.816406 40.90625 248.816406 37.871094 C 248.816406 34.875 249.378906 32.257812 250.503906 30.027344 C 251.628906 27.792969 253.179688 26.085938 255.148438 24.898438 C 257.152344 23.714844 259.421875 23.121094 261.953125 23.121094 Z M 263.800781 28.351562 C 261.125 28.351562 258.980469 29.207031 257.363281 30.914062 C 255.78125 32.589844 254.988281 34.910156 254.988281 37.871094 C 254.988281 40.835938 255.78125 43.171875 257.363281 44.882812 C 258.980469 46.554688 261.125 47.394531 263.800781 47.394531 C 265.488281 47.394531 267 47.007812 268.335938 46.242188 C 269.671875 45.441406 270.726562 44.324219 271.5 42.894531 C 272.273438 41.464844 272.664062 39.789062 272.664062 37.871094 C 272.664062 35.988281 272.273438 34.332031 271.5 32.902344 C 270.726562 31.4375 269.671875 30.324219 268.335938 29.554688 C 267 28.753906 265.488281 28.351562 263.800781 28.351562 Z M 302.144531 23.015625 C 305.519531 23.015625 308.226562 24.097656 310.269531 26.261719 C 312.308594 28.421875 313.328125 31.507812 313.328125 35.519531 L 313.328125 52.308594 L 307.316406 52.308594 L 307.316406 36.148438 C 307.316406 33.566406 306.644531 31.578125 305.308594 30.183594 C 303.972656 28.753906 302.144531 28.039062 299.820312 28.039062 C 297.429688 28.039062 295.511719 28.804688 294.070312 30.339844 C 292.628906 31.839844 291.910156 34.054688 291.910156 36.984375 L 291.910156 52.308594 L 285.894531 52.308594 L 285.894531 23.488281 L 291.910156 23.488281 L 291.910156 29.816406 C 292.679688 27.65625 293.984375 25.980469 295.8125 24.796875 C 297.640625 23.609375 299.753906 23.015625 302.144531 23.015625 Z M 323.792969 23.488281 L 332.496094 44.671875 L 340.566406 23.488281 L 347.269531 23.488281 L 329.699219 66.015625 L 323 66.015625 L 329.277344 51.628906 L 317.039062 23.488281 Z M 323.792969 23.488281 "/>
<path style=" stroke:none;fill-rule:nonzero;fill:rgb(5.882353%,18.823529%,25.490196%);fill-opacity:1;" d="M 70.234375 54.425781 C 66.757812 60.882812 61.429688 66.171875 54.921875 69.625 C 48.414062 73.074219 41.019531 74.539062 33.675781 73.824219 C 26.332031 73.109375 19.363281 70.25 13.65625 65.613281 C 7.949219 60.972656 3.757812 54.757812 1.613281 47.757812 C -0.535156 40.753906 -0.539062 33.277344 1.601562 26.277344 C 3.742188 19.273438 7.925781 13.054688 13.628906 8.410156 C 19.332031 3.765625 26.296875 0.898438 33.640625 0.179688 C 40.984375 -0.539062 48.382812 0.914062 54.890625 4.359375 L 50.472656 12.566406 C 45.597656 9.988281 40.0625 8.898438 34.566406 9.4375 C 29.066406 9.976562 23.855469 12.121094 19.585938 15.597656 C 15.316406 19.074219 12.183594 23.730469 10.582031 28.972656 C 8.980469 34.214844 8.980469 39.8125 10.589844 45.050781 C 12.195312 50.292969 15.332031 54.945312 19.605469 58.417969 C 23.878906 61.890625 29.09375 64.03125 34.589844 64.566406 C 40.089844 65.101562 45.625 64.003906 50.496094 61.421875 C 55.367188 58.835938 59.355469 54.878906 61.957031 50.046875 Z M 70.234375 54.425781 "/>
<path style=" stroke:none;fill-rule:nonzero;fill:rgb(78.431373%,14.117647%,18.431373%);fill-opacity:1;" d="M 37.960938 56.136719 C 48.265625 56.136719 56.617188 47.855469 56.617188 37.636719 C 56.617188 27.421875 48.265625 19.136719 37.960938 19.136719 C 27.65625 19.136719 19.300781 27.421875 19.300781 37.636719 C 19.300781 47.855469 27.65625 56.136719 37.960938 56.136719 Z M 37.960938 56.136719 "/>
</g>
</svg>
