<?xml version="1.0" encoding="UTF-8"?>
<svg xmlns="http://www.w3.org/2000/svg" xmlns:xlink="http://www.w3.org/1999/xlink" width="200px" height="43px" viewBox="0 0 201 43" version="1.1">
<g id="surface1">
<path style=" stroke:none;fill-rule:nonzero;fill:rgb(13.333333%,19.215686%,21.568627%);fill-opacity:1;" d="M 58.929688 8.722656 C 61.554688 8.722656 63.734375 9.390625 65.472656 10.730469 C 67.210938 12.066406 68.382812 13.882812 68.988281 16.171875 L 65.320312 16.171875 C 64.816406 14.875 64.007812 13.851562 62.898438 13.101562 C 61.808594 12.332031 60.464844 11.945312 58.867188 11.945312 C 57.59375 11.945312 56.453125 12.261719 55.445312 12.886719 C 54.453125 13.515625 53.667969 14.417969 53.082031 15.59375 C 52.515625 16.75 52.234375 18.105469 52.234375 19.667969 C 52.234375 21.207031 52.515625 22.5625 53.082031 23.738281 C 53.667969 24.894531 54.453125 25.785156 55.445312 26.414062 C 56.453125 27.042969 57.59375 27.355469 58.867188 27.355469 C 60.464844 27.355469 61.808594 26.980469 62.898438 26.230469 C 64.007812 25.460938 64.816406 24.4375 65.320312 23.164062 L 68.988281 23.164062 C 68.382812 25.453125 67.210938 27.265625 65.472656 28.601562 C 63.734375 29.921875 61.554688 30.578125 58.929688 30.578125 C 56.910156 30.578125 55.121094 30.121094 53.566406 29.210938 C 52.011719 28.277344 50.808594 26.992188 49.960938 25.351562 C 49.113281 23.6875 48.6875 21.792969 48.6875 19.667969 C 48.6875 17.539062 49.113281 15.652344 49.960938 14.011719 C 50.808594 12.351562 52.011719 11.054688 53.566406 10.121094 C 55.121094 9.191406 56.910156 8.722656 58.929688 8.722656 Z M 80.066406 13.433594 C 81.683594 13.433594 83.136719 13.78125 84.429688 14.46875 C 85.722656 15.15625 86.734375 16.152344 87.460938 17.449219 C 88.1875 18.746094 88.550781 20.265625 88.550781 22.007812 C 88.550781 23.769531 88.1875 25.300781 87.460938 26.597656 C 86.734375 27.894531 85.722656 28.886719 84.429688 29.574219 C 83.136719 30.265625 81.683594 30.609375 80.066406 30.609375 C 78.453125 30.609375 77 30.265625 75.707031 29.574219 C 74.433594 28.886719 73.421875 27.894531 72.675781 26.597656 C 71.949219 25.28125 71.585938 23.75 71.585938 22.007812 C 71.585938 20.265625 71.949219 18.746094 72.675781 17.449219 C 73.421875 16.152344 74.433594 15.15625 75.707031 14.46875 C 77 13.78125 78.453125 13.433594 80.066406 13.433594 Z M 80.066406 16.445312 C 79.179688 16.445312 78.363281 16.648438 77.613281 17.050781 C 76.867188 17.457031 76.261719 18.085938 75.796875 18.9375 C 75.351562 19.769531 75.128906 20.792969 75.128906 22.007812 C 75.128906 23.242188 75.351562 24.277344 75.796875 25.109375 C 76.261719 25.9375 76.867188 26.554688 77.613281 26.960938 C 78.363281 27.367188 79.179688 27.570312 80.066406 27.570312 C 80.957031 27.570312 81.773438 27.367188 82.523438 26.960938 C 83.269531 26.554688 83.867188 25.9375 84.308594 25.109375 C 84.773438 24.277344 85.007812 23.242188 85.007812 22.007812 C 85.007812 20.792969 84.773438 19.769531 84.308594 18.9375 C 83.867188 18.085938 83.269531 17.457031 82.523438 17.050781 C 81.773438 16.648438 80.957031 16.445312 80.066406 16.445312 Z M 112.746094 13.375 C 114.726562 13.375 116.304688 14.003906 117.472656 15.257812 C 118.667969 16.515625 119.261719 18.308594 119.261719 20.640625 L 119.261719 30.398438 L 115.808594 30.398438 L 115.808594 21.003906 C 115.808594 19.546875 115.445312 18.421875 114.71875 17.628906 C 113.988281 16.820312 112.988281 16.414062 111.71875 16.414062 C 110.363281 16.414062 109.285156 16.851562 108.476562 17.722656 C 107.6875 18.574219 107.292969 19.828125 107.292969 21.492188 L 107.292969 30.398438 L 103.839844 30.398438 L 103.839844 21.003906 C 103.839844 19.546875 103.476562 18.421875 102.75 17.628906 C 102.023438 16.820312 101.023438 16.414062 99.75 16.414062 C 98.398438 16.414062 97.316406 16.851562 96.507812 17.722656 C 95.71875 18.574219 95.328125 19.828125 95.328125 21.492188 L 95.328125 30.398438 L 91.871094 30.398438 L 91.871094 13.648438 L 95.328125 13.648438 L 95.328125 17.144531 C 95.75 15.929688 96.457031 14.996094 97.449219 14.347656 C 98.4375 13.699219 99.597656 13.375 100.929688 13.375 C 102.324219 13.375 103.527344 13.71875 104.535156 14.40625 C 105.566406 15.097656 106.3125 16.089844 106.777344 17.386719 C 107.265625 16.128906 108.042969 15.148438 109.113281 14.4375 C 110.183594 13.730469 111.394531 13.375 112.746094 13.375 Z M 132.867188 13.433594 C 134.324219 13.433594 135.617188 13.78125 136.746094 14.46875 C 137.898438 15.15625 138.796875 16.152344 139.445312 17.449219 C 140.089844 18.746094 140.414062 20.265625 140.414062 22.007812 C 140.414062 23.769531 140.089844 25.300781 139.445312 26.597656 C 138.796875 27.894531 137.898438 28.886719 136.746094 29.574219 C 135.617188 30.265625 134.324219 30.609375 132.867188 30.609375 C 131.355469 30.609375 130.0625 30.234375 128.992188 29.484375 C 127.921875 28.734375 127.171875 27.742188 126.75 26.503906 L 126.75 38.359375 L 123.296875 38.359375 L 123.296875 13.648438 L 126.75 13.648438 L 126.75 17.539062 C 127.171875 16.300781 127.921875 15.308594 128.992188 14.558594 C 130.0625 13.808594 131.355469 13.433594 132.867188 13.433594 Z M 131.808594 16.476562 C 130.839844 16.476562 129.96875 16.707031 129.203125 17.175781 C 128.433594 17.621094 127.828125 18.269531 127.386719 19.121094 C 126.941406 19.949219 126.71875 20.914062 126.71875 22.007812 C 126.71875 23.121094 126.941406 24.09375 127.386719 24.925781 C 127.828125 25.757812 128.433594 26.40625 129.203125 26.871094 C 129.96875 27.316406 130.839844 27.539062 131.808594 27.539062 C 133.34375 27.539062 134.574219 27.054688 135.503906 26.082031 C 136.433594 25.085938 136.898438 23.730469 136.898438 22.007812 C 136.898438 20.304688 136.433594 18.957031 135.503906 17.964844 C 134.574219 16.972656 133.34375 16.476562 131.808594 16.476562 Z M 150.4375 13.433594 C 151.949219 13.433594 153.242188 13.808594 154.3125 14.558594 C 155.382812 15.308594 156.140625 16.300781 156.585938 17.539062 L 156.585938 13.648438 L 160.039062 13.648438 L 160.039062 30.398438 L 156.585938 30.398438 L 156.585938 26.503906 C 156.140625 27.742188 155.382812 28.734375 154.3125 29.484375 C 153.242188 30.234375 151.949219 30.609375 150.4375 30.609375 C 148.980469 30.609375 147.679688 30.265625 146.527344 29.574219 C 145.394531 28.886719 144.507812 27.894531 143.859375 26.597656 C 143.214844 25.300781 142.890625 23.769531 142.890625 22.007812 C 142.890625 20.265625 143.214844 18.746094 143.859375 17.449219 C 144.507812 16.152344 145.394531 15.15625 146.527344 14.46875 C 147.679688 13.78125 148.980469 13.433594 150.4375 13.433594 Z M 151.496094 16.476562 C 149.960938 16.476562 148.730469 16.972656 147.800781 17.964844 C 146.890625 18.9375 146.4375 20.285156 146.4375 22.007812 C 146.4375 23.730469 146.890625 25.085938 147.800781 26.082031 C 148.730469 27.054688 149.960938 27.539062 151.496094 27.539062 C 152.464844 27.539062 153.335938 27.316406 154.101562 26.871094 C 154.867188 26.40625 155.476562 25.757812 155.917969 24.925781 C 156.363281 24.09375 156.585938 23.121094 156.585938 22.007812 C 156.585938 20.914062 156.363281 19.949219 155.917969 19.121094 C 155.476562 18.269531 154.867188 17.621094 154.101562 17.175781 C 153.335938 16.707031 152.464844 16.476562 151.496094 16.476562 Z M 173.515625 13.375 C 175.457031 13.375 177.011719 14.003906 178.183594 15.257812 C 179.355469 16.515625 179.941406 18.308594 179.941406 20.640625 L 179.941406 30.398438 L 176.484375 30.398438 L 176.484375 21.003906 C 176.484375 19.503906 176.101562 18.347656 175.335938 17.539062 C 174.566406 16.707031 173.515625 16.292969 172.183594 16.292969 C 170.808594 16.292969 169.710938 16.738281 168.882812 17.628906 C 168.054688 18.5 167.640625 19.789062 167.640625 21.492188 L 167.640625 30.398438 L 164.183594 30.398438 L 164.183594 13.648438 L 167.640625 13.648438 L 167.640625 17.324219 C 168.082031 16.070312 168.832031 15.097656 169.882812 14.40625 C 170.929688 13.71875 172.144531 13.375 173.515625 13.375 Z M 185.949219 13.648438 L 190.949219 25.957031 L 195.582031 13.648438 L 199.429688 13.648438 L 189.34375 38.359375 L 185.496094 38.359375 L 189.101562 30 L 182.070312 13.648438 Z M 185.949219 13.648438 "/>
<path style=" stroke:none;fill-rule:nonzero;fill:rgb(5.882353%,18.823529%,25.490196%);fill-opacity:1;" d="M 40.335938 31.625 C 38.339844 35.378906 35.277344 38.449219 31.539062 40.457031 C 27.804688 42.464844 23.558594 43.3125 19.339844 42.898438 C 15.121094 42.484375 11.121094 40.820312 7.84375 38.125 C 4.566406 35.429688 2.15625 31.820312 0.925781 27.75 C -0.304688 23.683594 -0.308594 19.339844 0.921875 15.269531 C 2.148438 11.199219 4.550781 7.585938 7.828125 4.886719 C 11.101562 2.1875 15.101562 0.523438 19.320312 0.105469 C 23.539062 -0.3125 27.785156 0.53125 31.523438 2.535156 L 28.984375 7.300781 C 26.1875 5.804688 23.007812 5.171875 19.851562 5.484375 C 16.691406 5.796875 13.699219 7.042969 11.246094 9.0625 C 8.796875 11.082031 6.996094 13.789062 6.078125 16.835938 C 5.15625 19.882812 5.160156 23.132812 6.082031 26.179688 C 7.003906 29.226562 8.804688 31.925781 11.257812 33.945312 C 13.710938 35.964844 16.707031 37.207031 19.863281 37.519531 C 23.023438 37.828125 26.203125 37.191406 29 35.691406 C 31.796875 34.1875 34.085938 31.886719 35.582031 29.082031 Z M 40.335938 31.625 "/>
<path style=" stroke:none;fill-rule:nonzero;fill:rgb(78.431373%,14.117647%,18.431373%);fill-opacity:1;" d="M 22.539062 32.621094 C 28.457031 32.621094 33.253906 27.808594 33.253906 21.871094 C 33.253906 15.933594 28.457031 11.121094 22.539062 11.121094 C 16.621094 11.121094 11.824219 15.933594 11.824219 21.871094 C 11.824219 27.808594 16.621094 32.621094 22.539062 32.621094 Z M 22.539062 32.621094 "/>
</g>
</svg>
