<?xml version="1.0" encoding="UTF-8"?>
<svg xmlns="http://www.w3.org/2000/svg" xmlns:xlink="http://www.w3.org/1999/xlink" width="268px" height="57px" viewBox="0 0 267 57" version="1.1">
<g id="surface1">
<path style=" stroke:none;fill-rule:nonzero;fill:rgb(13.333333%,19.215686%,21.568627%);fill-opacity:1;" d="M 78.277344 11.5625 C 81.765625 11.5625 84.664062 12.449219 86.972656 14.222656 C 89.277344 15.996094 90.835938 18.402344 91.640625 21.4375 L 86.769531 21.4375 C 86.097656 19.714844 85.027344 18.359375 83.550781 17.367188 C 82.101562 16.34375 80.316406 15.835938 78.199219 15.835938 C 76.507812 15.835938 74.992188 16.25 73.648438 17.085938 C 72.335938 17.917969 71.289062 19.113281 70.511719 20.671875 C 69.757812 22.203125 69.382812 24 69.382812 26.070312 C 69.382812 28.109375 69.757812 29.910156 70.511719 31.46875 C 71.289062 33 72.335938 34.183594 73.648438 35.015625 C 74.992188 35.847656 76.507812 36.265625 78.199219 36.265625 C 80.316406 36.265625 82.101562 35.765625 83.550781 34.773438 C 85.027344 33.753906 86.097656 32.394531 86.769531 30.703125 L 91.640625 30.703125 C 90.835938 33.738281 89.277344 36.144531 86.972656 37.914062 C 84.664062 39.660156 81.765625 40.535156 78.277344 40.535156 C 75.59375 40.535156 73.21875 39.929688 71.15625 38.722656 C 69.089844 37.484375 67.492188 35.78125 66.363281 33.605469 C 65.238281 31.402344 64.675781 28.890625 64.675781 26.070312 C 64.675781 23.25 65.238281 20.75 66.363281 18.574219 C 67.492188 16.371094 69.089844 14.652344 71.15625 13.417969 C 73.21875 12.183594 75.59375 11.5625 78.277344 11.5625 Z M 106.359375 17.808594 C 108.507812 17.808594 110.4375 18.265625 112.15625 19.179688 C 113.871094 20.09375 115.214844 21.410156 116.179688 23.128906 C 117.144531 24.847656 117.628906 26.863281 117.628906 29.171875 C 117.628906 31.507812 117.144531 33.539062 116.179688 35.257812 C 115.214844 36.976562 113.871094 38.292969 112.15625 39.207031 C 110.4375 40.117188 108.507812 40.574219 106.359375 40.574219 C 104.214844 40.574219 102.28125 40.117188 100.5625 39.207031 C 98.875 38.292969 97.53125 36.976562 96.539062 35.257812 C 95.574219 33.511719 95.089844 31.480469 95.089844 29.171875 C 95.089844 26.863281 95.574219 24.847656 96.539062 23.128906 C 97.53125 21.410156 98.875 20.09375 100.5625 19.179688 C 102.28125 18.265625 104.214844 17.808594 106.359375 17.808594 Z M 106.359375 21.796875 C 105.179688 21.796875 104.09375 22.066406 103.097656 22.605469 C 102.105469 23.140625 101.300781 23.972656 100.683594 25.101562 C 100.09375 26.203125 99.800781 27.558594 99.800781 29.171875 C 99.800781 30.8125 100.09375 32.179688 100.683594 33.28125 C 101.300781 34.382812 102.105469 35.203125 103.097656 35.738281 C 104.09375 36.277344 105.179688 36.546875 106.359375 36.546875 C 107.539062 36.546875 108.625 36.277344 109.621094 35.738281 C 110.613281 35.203125 111.402344 34.382812 111.992188 33.28125 C 112.609375 32.179688 112.917969 30.8125 112.917969 29.171875 C 112.917969 27.558594 112.609375 26.203125 111.992188 25.101562 C 111.402344 23.972656 110.613281 23.140625 109.621094 22.605469 C 108.625 22.066406 107.539062 21.796875 106.359375 21.796875 Z M 149.769531 17.730469 C 152.398438 17.730469 154.492188 18.5625 156.046875 20.226562 C 157.632812 21.894531 158.421875 24.269531 158.421875 27.359375 L 158.421875 40.292969 L 153.835938 40.292969 L 153.835938 27.84375 C 153.835938 25.910156 153.351562 24.417969 152.386719 23.371094 C 151.417969 22.296875 150.089844 21.757812 148.402344 21.757812 C 146.605469 21.757812 145.167969 22.335938 144.09375 23.492188 C 143.046875 24.617188 142.523438 26.285156 142.523438 28.488281 L 142.523438 40.292969 L 137.9375 40.292969 L 137.9375 27.84375 C 137.9375 25.910156 137.453125 24.417969 136.488281 23.371094 C 135.523438 22.296875 134.195312 21.757812 132.503906 21.757812 C 130.707031 21.757812 129.269531 22.335938 128.199219 23.492188 C 127.152344 24.617188 126.628906 26.285156 126.628906 28.488281 L 126.628906 40.292969 L 122.039062 40.292969 L 122.039062 18.089844 L 126.628906 18.089844 L 126.628906 22.726562 C 127.191406 21.113281 128.128906 19.878906 129.445312 19.019531 C 130.757812 18.160156 132.300781 17.730469 134.074219 17.730469 C 135.925781 17.730469 137.519531 18.1875 138.863281 19.097656 C 140.230469 20.011719 141.222656 21.328125 141.839844 23.046875 C 142.484375 21.382812 143.515625 20.078125 144.941406 19.140625 C 146.363281 18.199219 147.972656 17.730469 149.769531 17.730469 Z M 176.496094 17.808594 C 178.429688 17.808594 180.144531 18.265625 181.648438 19.179688 C 183.179688 20.09375 184.371094 21.410156 185.230469 23.128906 C 186.089844 24.847656 186.519531 26.863281 186.519531 29.171875 C 186.519531 31.507812 186.089844 33.539062 185.230469 35.257812 C 184.371094 36.976562 183.179688 38.292969 181.648438 39.207031 C 180.144531 40.117188 178.429688 40.574219 176.496094 40.574219 C 174.484375 40.574219 172.769531 40.078125 171.347656 39.085938 C 169.925781 38.089844 168.929688 36.773438 168.367188 35.136719 L 168.367188 50.851562 L 163.78125 50.851562 L 163.78125 18.089844 L 168.367188 18.089844 L 168.367188 23.25 C 168.929688 21.609375 169.925781 20.292969 171.347656 19.300781 C 172.769531 18.304688 174.484375 17.808594 176.496094 17.808594 Z M 175.089844 21.839844 C 173.800781 21.839844 172.648438 22.148438 171.628906 22.765625 C 170.609375 23.355469 169.804688 24.214844 169.214844 25.34375 C 168.621094 26.445312 168.328125 27.722656 168.328125 29.171875 C 168.328125 30.648438 168.621094 31.9375 169.214844 33.039062 C 169.804688 34.140625 170.609375 35 171.628906 35.617188 C 172.648438 36.210938 173.800781 36.503906 175.089844 36.503906 C 177.128906 36.503906 178.765625 35.859375 180 34.570312 C 181.234375 33.253906 181.851562 31.457031 181.851562 29.171875 C 181.851562 26.914062 181.234375 25.128906 180 23.8125 C 178.765625 22.496094 177.128906 21.839844 175.089844 21.839844 Z M 199.832031 17.808594 C 201.84375 17.808594 203.5625 18.304688 204.984375 19.300781 C 206.40625 20.292969 207.410156 21.609375 208.003906 23.25 L 208.003906 18.089844 L 212.589844 18.089844 L 212.589844 40.292969 L 208.003906 40.292969 L 208.003906 35.136719 C 207.410156 36.773438 206.40625 38.089844 204.984375 39.085938 C 203.5625 40.078125 201.84375 40.574219 199.832031 40.574219 C 197.902344 40.574219 196.171875 40.117188 194.640625 39.207031 C 193.136719 38.292969 191.957031 36.976562 191.097656 35.257812 C 190.242188 33.539062 189.8125 31.507812 189.8125 29.171875 C 189.8125 26.863281 190.242188 24.847656 191.097656 23.128906 C 191.957031 21.410156 193.136719 20.09375 194.640625 19.179688 C 196.171875 18.265625 197.902344 17.808594 199.832031 17.808594 Z M 201.242188 21.839844 C 199.203125 21.839844 197.566406 22.496094 196.332031 23.8125 C 195.125 25.101562 194.519531 26.890625 194.519531 29.171875 C 194.519531 31.457031 195.125 33.253906 196.332031 34.570312 C 197.566406 35.859375 199.203125 36.503906 201.242188 36.503906 C 202.53125 36.503906 203.683594 36.210938 204.703125 35.617188 C 205.722656 35 206.527344 34.140625 207.117188 33.039062 C 207.707031 31.9375 208.003906 30.648438 208.003906 29.171875 C 208.003906 27.722656 207.707031 26.445312 207.117188 25.34375 C 206.527344 24.214844 205.722656 23.355469 204.703125 22.765625 C 203.683594 22.148438 202.53125 21.839844 201.242188 21.839844 Z M 230.492188 17.730469 C 233.070312 17.730469 235.132812 18.5625 236.691406 20.226562 C 238.246094 21.894531 239.023438 24.269531 239.023438 27.359375 L 239.023438 40.292969 L 234.4375 40.292969 L 234.4375 27.84375 C 234.4375 25.855469 233.925781 24.324219 232.90625 23.25 C 231.886719 22.148438 230.492188 21.597656 228.722656 21.597656 C 226.898438 21.597656 225.433594 22.1875 224.335938 23.371094 C 223.234375 24.523438 222.683594 26.230469 222.683594 28.488281 L 222.683594 40.292969 L 218.097656 40.292969 L 218.097656 18.089844 L 222.683594 18.089844 L 222.683594 22.96875 C 223.273438 21.300781 224.265625 20.011719 225.664062 19.097656 C 227.058594 18.1875 228.667969 17.730469 230.492188 17.730469 Z M 247.007812 18.089844 L 253.648438 34.410156 L 259.804688 18.089844 L 264.917969 18.089844 L 251.515625 50.851562 L 246.402344 50.851562 L 251.191406 39.769531 L 241.855469 18.089844 Z M 247.007812 18.089844 "/>
<path style=" stroke:none;fill-rule:nonzero;fill:rgb(5.882353%,18.823529%,25.490196%);fill-opacity:1;" d="M 53.578125 41.921875 C 50.925781 46.894531 46.863281 50.96875 41.898438 53.628906 C 36.933594 56.289062 31.292969 57.414062 25.6875 56.863281 C 20.085938 56.3125 14.769531 54.113281 10.417969 50.539062 C 6.0625 46.964844 2.867188 42.179688 1.230469 36.785156 C -0.40625 31.390625 -0.410156 25.632812 1.222656 20.238281 C 2.855469 14.84375 6.046875 10.054688 10.398438 6.476562 C 14.75 2.898438 20.0625 0.695312 25.664062 0.136719 C 31.265625 -0.417969 36.90625 0.703125 41.875 3.359375 L 38.503906 9.679688 C 34.785156 7.691406 30.5625 6.855469 26.367188 7.269531 C 22.175781 7.683594 18.199219 9.335938 14.941406 12.015625 C 11.683594 14.691406 9.292969 18.277344 8.070312 22.316406 C 6.851562 26.355469 6.851562 30.664062 8.078125 34.703125 C 9.304688 38.738281 11.695312 42.324219 14.957031 44.996094 C 18.214844 47.671875 22.191406 49.320312 26.386719 49.734375 C 30.582031 50.144531 34.804688 49.300781 38.519531 47.3125 C 42.238281 45.320312 45.28125 42.269531 47.265625 38.546875 Z M 53.578125 41.921875 "/>
<path style=" stroke:none;fill-rule:nonzero;fill:rgb(78.431373%,14.117647%,18.431373%);fill-opacity:1;" d="M 29.9375 43.242188 C 37.800781 43.242188 44.171875 36.863281 44.171875 28.992188 C 44.171875 21.121094 37.800781 14.742188 29.9375 14.742188 C 22.078125 14.742188 15.707031 21.121094 15.707031 28.992188 C 15.707031 36.863281 22.078125 43.242188 29.9375 43.242188 Z M 29.9375 43.242188 "/>
</g>
</svg>
